<?xml version="1.0" standalone="no"?>
<!DOCTYPE svg PUBLIC "-//W3C//DTD SVG 20010904//EN"
 "http://www.w3.org/TR/2001/REC-SVG-20010904/DTD/svg10.dtd">
<svg version="1.0" xmlns="http://www.w3.org/2000/svg"
 width="300.000000pt" height="300.000000pt" viewBox="0 0 300.000000 300.000000"
 preserveAspectRatio="xMidYMid meet">

<g transform="translate(0.000000,300.000000) scale(0.100000,-0.100000)"
fill="#000000" stroke="none">
<path d="M1914 2712 c-6 -4 -86 -142 -179 -307 -92 -165 -187 -334 -211 -376
-48 -84 -56 -124 -24 -134 11 -4 103 13 205 37 172 40 183 43 159 56 -43 23
-54 63 -37 146 8 39 17 85 20 101 3 17 27 127 53 245 36 163 45 218 36 227 -6
7 -16 9 -22 5z"/>
<path d="M660 2466 c0 -8 102 -185 226 -395 191 -321 230 -381 249 -381 12 0
27 6 32 13 10 11 113 339 113 357 0 5 -14 2 -30 -7 -56 -27 -54 -29 -384 272
-67 60 -132 120 -146 132 -28 26 -60 30 -60 9z"/>
<path d="M1905 1741 c-53 -5 -60 -9 -63 -29 -3 -17 10 -38 45 -75 26 -29 87
-94 135 -145 47 -51 84 -84 81 -72 -8 30 16 79 46 94 23 12 150 54 511 169 69
22 105 38 105 48 0 12 -60 14 -400 15 -220 0 -427 -2 -460 -5z"/>
<path d="M900 1568 c-1 -60 -21 -74 -215 -138 -99 -32 -240 -77 -312 -100
-115 -35 -133 -44 -133 -62 l0 -21 453 7 c389 6 454 9 464 23 21 27 25 22
-179 241 l-78 84 0 -34z"/>
<path d="M1847 1308 c-10 -8 -40 -87 -72 -192 -30 -98 -55 -180 -55 -183 0 -2
10 3 22 11 31 22 68 20 105 -6 40 -30 167 -143 317 -282 137 -128 160 -146
177 -129 9 9 -21 67 -121 235 -73 123 -176 295 -228 383 -108 183 -112 187
-145 163z"/>
<path d="M1305 1075 c-77 -19 -151 -37 -164 -41 l-25 -5 25 -12 c13 -7 30 -26
38 -42 15 -31 8 -86 -40 -295 -38 -170 -79 -365 -79 -377 0 -7 9 -13 19 -13
14 0 34 27 73 98 30 53 128 229 218 391 176 315 179 324 109 328 -19 1 -97
-14 -174 -32z"/>
</g>
</svg>
